<svg width="366" height="48" viewBox="0 0 366 48" fill="none" xmlns="http://www.w3.org/2000/svg">
<path d="M342 2.5C342.828 2.5 343.5 3.17157 343.5 4V6C343.5 6.82843 342.828 7.5 342 7.5C341.172 7.5 340.5 6.82843 340.5 6V4C340.5 3.17157 341.172 2.5 342 2.5Z" fill="white"/>
<path fill-rule="evenodd" clip-rule="evenodd" d="M330.5 24C330.5 17.6487 335.649 12.5 342 12.5C348.351 12.5 353.5 17.6487 353.5 24C353.5 30.3513 348.351 35.5 342 35.5C335.649 35.5 330.5 30.3513 330.5 24ZM342 15.5C337.306 15.5 333.5 19.3056 333.5 24C333.5 28.6944 337.306 32.5 342 32.5C346.694 32.5 350.5 28.6944 350.5 24C350.5 19.3056 346.694 15.5 342 15.5Z" fill="white"/>
<path d="M328.919 8.79725C328.333 8.21146 327.383 8.21146 326.797 8.79725C326.211 9.38304 326.211 10.3328 326.797 10.9186L328.211 12.3328C328.797 12.9186 329.747 12.9186 330.333 12.3328C330.919 11.747 330.919 10.7972 330.333 10.2115L328.919 8.79725Z" fill="white"/>
<path d="M363.5 24C363.5 24.8284 362.828 25.5 362 25.5H360C359.172 25.5 358.5 24.8284 358.5 24C358.5 23.1716 359.172 22.5 360 22.5H362C362.828 22.5 363.5 23.1716 363.5 24Z" fill="white"/>
<path d="M357.203 10.9186C357.789 10.3328 357.789 9.38302 357.203 8.79723C356.617 8.21145 355.667 8.21145 355.081 8.79723L353.667 10.2114C353.081 10.7972 353.081 11.747 353.667 12.3328C354.253 12.9186 355.203 12.9186 355.789 12.3328L357.203 10.9186Z" fill="white"/>
<path d="M342 40.5C342.828 40.5 343.5 41.1716 343.5 42V44C343.5 44.8284 342.828 45.5 342 45.5C341.172 45.5 340.5 44.8284 340.5 44V42C340.5 41.1716 341.172 40.5 342 40.5Z" fill="white"/>
<path d="M355.789 35.6672C355.203 35.0815 354.253 35.0815 353.667 35.6672C353.082 36.253 353.082 37.2028 353.667 37.7886L355.082 39.2028C355.667 39.7886 356.617 39.7886 357.203 39.2028C357.789 38.617 357.789 37.6672 357.203 37.0815L355.789 35.6672Z" fill="white"/>
<path d="M325.5 24C325.5 24.8284 324.828 25.5 324 25.5H322C321.172 25.5 320.5 24.8284 320.5 24C320.5 23.1716 321.172 22.5 322 22.5H324C324.828 22.5 325.5 23.1716 325.5 24Z" fill="white"/>
<path d="M330.333 37.7885C330.918 37.2028 330.918 36.253 330.333 35.6672C329.747 35.0814 328.797 35.0814 328.211 35.6672L326.797 37.0814C326.211 37.6672 326.211 38.617 326.797 39.2028C327.383 39.7885 328.333 39.7885 328.918 39.2028L330.333 37.7885Z" fill="white"/>
<path d="M9.89648 39H4.55273L4.58789 36.2402H9.89648C11.7246 36.2402 13.248 35.8594 14.4668 35.0977C15.6855 34.3242 16.5996 33.2461 17.209 31.8633C17.8301 30.4688 18.1406 28.8398 18.1406 26.9766V25.4121C18.1406 23.9473 17.9648 22.6465 17.6133 21.5098C17.2617 20.3613 16.7461 19.3945 16.0664 18.6094C15.3867 17.8125 14.5547 17.209 13.5703 16.7988C12.5977 16.3887 11.4785 16.1836 10.2129 16.1836H4.44727V13.4062H10.2129C11.8887 13.4062 13.418 13.6875 14.8008 14.25C16.1836 14.8008 17.373 15.6035 18.3691 16.6582C19.377 17.7012 20.1504 18.9668 20.6895 20.4551C21.2285 21.9316 21.498 23.5957 21.498 25.4473V26.9766C21.498 28.8281 21.2285 30.498 20.6895 31.9863C20.1504 33.4629 19.3711 34.7227 18.3516 35.7656C17.3438 36.8086 16.125 37.6113 14.6953 38.1738C13.2773 38.7246 11.6777 39 9.89648 39ZM6.36328 13.4062V39H2.9707V13.4062H6.36328ZM37.3184 35.748V25.957C37.3184 25.207 37.166 24.5566 36.8613 24.0059C36.5684 23.4434 36.123 23.0098 35.5254 22.7051C34.9277 22.4004 34.1895 22.248 33.3105 22.248C32.4902 22.248 31.7695 22.3887 31.1484 22.6699C30.5391 22.9512 30.0586 23.3203 29.707 23.7773C29.3672 24.2344 29.1973 24.7266 29.1973 25.2539H25.9453C25.9453 24.5742 26.1211 23.9004 26.4727 23.2324C26.8242 22.5645 27.3281 21.9609 27.9844 21.4219C28.6523 20.8711 29.4492 20.4375 30.375 20.1211C31.3125 19.793 32.3555 19.6289 33.5039 19.6289C34.8867 19.6289 36.1055 19.8633 37.1602 20.332C38.2266 20.8008 39.0586 21.5098 39.6562 22.459C40.2656 23.3965 40.5703 24.5742 40.5703 25.9922V34.8516C40.5703 35.4844 40.623 36.1582 40.7285 36.873C40.8457 37.5879 41.0156 38.2031 41.2383 38.7188V39H37.8457C37.6816 38.625 37.5527 38.127 37.459 37.5059C37.3652 36.873 37.3184 36.2871 37.3184 35.748ZM37.8809 27.4688L37.916 29.7539H34.6289C33.7031 29.7539 32.877 29.8301 32.1504 29.9824C31.4238 30.123 30.8145 30.3398 30.3223 30.6328C29.8301 30.9258 29.4551 31.2949 29.1973 31.7402C28.9395 32.1738 28.8105 32.6836 28.8105 33.2695C28.8105 33.8672 28.9453 34.4121 29.2148 34.9043C29.4844 35.3965 29.8887 35.7891 30.4277 36.082C30.9785 36.3633 31.6523 36.5039 32.4492 36.5039C33.4453 36.5039 34.3242 36.293 35.0859 35.8711C35.8477 35.4492 36.4512 34.9336 36.8965 34.3242C37.3535 33.7148 37.5996 33.123 37.6348 32.5488L39.0234 34.1133C38.9414 34.6055 38.7188 35.1504 38.3555 35.748C37.9922 36.3457 37.5059 36.9199 36.8965 37.4707C36.2988 38.0098 35.584 38.4609 34.752 38.8242C33.9316 39.1758 33.0059 39.3516 31.9746 39.3516C30.6855 39.3516 29.5547 39.0996 28.582 38.5957C27.6211 38.0918 26.8711 37.418 26.332 36.5742C25.8047 35.7188 25.541 34.7637 25.541 33.709C25.541 32.6895 25.7402 31.793 26.1387 31.0195C26.5371 30.2344 27.1113 29.584 27.8613 29.0684C28.6113 28.541 29.5137 28.1426 30.5684 27.873C31.623 27.6035 32.8008 27.4688 34.1016 27.4688H37.8809ZM49.2188 19.9805V39H45.9492V19.9805H49.2188ZM45.7031 14.9355C45.7031 14.4082 45.8613 13.9629 46.1777 13.5996C46.5059 13.2363 46.9863 13.0547 47.6191 13.0547C48.2402 13.0547 48.7148 13.2363 49.043 13.5996C49.3828 13.9629 49.5527 14.4082 49.5527 14.9355C49.5527 15.4395 49.3828 15.873 49.043 16.2363C48.7148 16.5879 48.2402 16.7637 47.6191 16.7637C46.9863 16.7637 46.5059 16.5879 46.1777 16.2363C45.8613 15.873 45.7031 15.4395 45.7031 14.9355ZM57.9727 12V39H54.7031V12H57.9727ZM68.5371 37.0312L73.8281 19.9805H77.3086L69.6797 41.9355C69.5039 42.4043 69.2695 42.9082 68.9766 43.4473C68.6953 43.998 68.332 44.5195 67.8867 45.0117C67.4414 45.5039 66.9023 45.9023 66.2695 46.207C65.6484 46.5234 64.9043 46.6816 64.0371 46.6816C63.7793 46.6816 63.4512 46.6465 63.0527 46.5762C62.6543 46.5059 62.373 46.4473 62.209 46.4004L62.1914 43.7637C62.2852 43.7754 62.4316 43.7871 62.6309 43.7988C62.8418 43.8223 62.9883 43.834 63.0703 43.834C63.8086 43.834 64.4355 43.7344 64.9512 43.5352C65.4668 43.3477 65.9004 43.0254 66.252 42.5684C66.6152 42.123 66.9258 41.5078 67.1836 40.7227L68.5371 37.0312ZM64.6523 19.9805L69.5918 34.7461L70.4355 38.1738L68.0977 39.3691L61.1016 19.9805H64.6523ZM87.4688 31.2656L92.5488 13.4062H95.0098L93.5859 20.3496L88.1191 39H85.6758L87.4688 31.2656ZM82.2129 13.4062L86.2559 30.9141L87.4688 39H85.043L78.8379 13.4062H82.2129ZM101.584 30.8965L105.539 13.4062H108.932L102.744 39H100.318L101.584 30.8965ZM95.3789 13.4062L100.318 31.2656L102.111 39H99.668L94.3945 20.3496L92.9531 13.4062H95.3789ZM119.531 39.3516C118.207 39.3516 117.006 39.1289 115.928 38.6836C114.861 38.2266 113.941 37.5879 113.168 36.7676C112.406 35.9473 111.82 34.9746 111.41 33.8496C111 32.7246 110.795 31.4941 110.795 30.1582V29.4199C110.795 27.873 111.023 26.4961 111.48 25.2891C111.938 24.0703 112.559 23.0391 113.344 22.1953C114.129 21.3516 115.02 20.7129 116.016 20.2793C117.012 19.8457 118.043 19.6289 119.109 19.6289C120.469 19.6289 121.641 19.8633 122.625 20.332C123.621 20.8008 124.436 21.457 125.068 22.3008C125.701 23.1328 126.17 24.1172 126.475 25.2539C126.779 26.3789 126.932 27.6094 126.932 28.9453V30.4043H112.729V27.75H123.68V27.5039C123.633 26.6602 123.457 25.8398 123.152 25.043C122.859 24.2461 122.391 23.5898 121.746 23.0742C121.102 22.5586 120.223 22.3008 119.109 22.3008C118.371 22.3008 117.691 22.459 117.07 22.7754C116.449 23.0801 115.916 23.5371 115.471 24.1465C115.025 24.7559 114.68 25.5 114.434 26.3789C114.188 27.2578 114.064 28.2715 114.064 29.4199V30.1582C114.064 31.0605 114.188 31.9102 114.434 32.707C114.691 33.4922 115.061 34.1836 115.541 34.7812C116.033 35.3789 116.625 35.8477 117.316 36.1875C118.02 36.5273 118.816 36.6973 119.707 36.6973C120.855 36.6973 121.828 36.4629 122.625 35.9941C123.422 35.5254 124.119 34.8984 124.717 34.1133L126.686 35.6777C126.275 36.2988 125.754 36.8906 125.121 37.4531C124.488 38.0156 123.709 38.4727 122.783 38.8242C121.869 39.1758 120.785 39.3516 119.531 39.3516ZM141.943 35.748V25.957C141.943 25.207 141.791 24.5566 141.486 24.0059C141.193 23.4434 140.748 23.0098 140.15 22.7051C139.553 22.4004 138.814 22.248 137.936 22.248C137.115 22.248 136.395 22.3887 135.773 22.6699C135.164 22.9512 134.684 23.3203 134.332 23.7773C133.992 24.2344 133.822 24.7266 133.822 25.2539H130.57C130.57 24.5742 130.746 23.9004 131.098 23.2324C131.449 22.5645 131.953 21.9609 132.609 21.4219C133.277 20.8711 134.074 20.4375 135 20.1211C135.938 19.793 136.98 19.6289 138.129 19.6289C139.512 19.6289 140.73 19.8633 141.785 20.332C142.852 20.8008 143.684 21.5098 144.281 22.459C144.891 23.3965 145.195 24.5742 145.195 25.9922V34.8516C145.195 35.4844 145.248 36.1582 145.354 36.873C145.471 37.5879 145.641 38.2031 145.863 38.7188V39H142.471C142.307 38.625 142.178 38.127 142.084 37.5059C141.99 36.873 141.943 36.2871 141.943 35.748ZM142.506 27.4688L142.541 29.7539H139.254C138.328 29.7539 137.502 29.8301 136.775 29.9824C136.049 30.123 135.439 30.3398 134.947 30.6328C134.455 30.9258 134.08 31.2949 133.822 31.7402C133.564 32.1738 133.436 32.6836 133.436 33.2695C133.436 33.8672 133.57 34.4121 133.84 34.9043C134.109 35.3965 134.514 35.7891 135.053 36.082C135.604 36.3633 136.277 36.5039 137.074 36.5039C138.07 36.5039 138.949 36.293 139.711 35.8711C140.473 35.4492 141.076 34.9336 141.521 34.3242C141.979 33.7148 142.225 33.123 142.26 32.5488L143.648 34.1133C143.566 34.6055 143.344 35.1504 142.98 35.748C142.617 36.3457 142.131 36.9199 141.521 37.4707C140.924 38.0098 140.209 38.4609 139.377 38.8242C138.557 39.1758 137.631 39.3516 136.6 39.3516C135.311 39.3516 134.18 39.0996 133.207 38.5957C132.246 38.0918 131.496 37.418 130.957 36.5742C130.43 35.7188 130.166 34.7637 130.166 33.709C130.166 32.6895 130.365 31.793 130.764 31.0195C131.162 30.2344 131.736 29.584 132.486 29.0684C133.236 28.541 134.139 28.1426 135.193 27.873C136.248 27.6035 137.426 27.4688 138.727 27.4688H142.506ZM158.273 19.9805V22.4766H147.99V19.9805H158.273ZM151.471 15.3574H154.723V34.2891C154.723 34.9336 154.822 35.4199 155.021 35.748C155.221 36.0762 155.479 36.293 155.795 36.3984C156.111 36.5039 156.451 36.5566 156.814 36.5566C157.084 36.5566 157.365 36.5332 157.658 36.4863C157.963 36.4277 158.191 36.3809 158.344 36.3457L158.361 39C158.104 39.082 157.764 39.1582 157.342 39.2285C156.932 39.3105 156.434 39.3516 155.848 39.3516C155.051 39.3516 154.318 39.1934 153.65 38.877C152.982 38.5605 152.449 38.0332 152.051 37.2949C151.664 36.5449 151.471 35.5371 151.471 34.2715V15.3574ZM165.34 12V39H162.088V12H165.34ZM164.566 28.7695L163.213 28.7168C163.225 27.416 163.418 26.2148 163.793 25.1133C164.168 24 164.695 23.0332 165.375 22.2129C166.055 21.3926 166.863 20.7598 167.801 20.3145C168.75 19.8574 169.799 19.6289 170.947 19.6289C171.885 19.6289 172.729 19.7578 173.479 20.0156C174.229 20.2617 174.867 20.6602 175.395 21.2109C175.934 21.7617 176.344 22.4766 176.625 23.3555C176.906 24.2227 177.047 25.2832 177.047 26.5371V39H173.777V26.502C173.777 25.5059 173.631 24.709 173.338 24.1113C173.045 23.502 172.617 23.0625 172.055 22.793C171.492 22.5117 170.801 22.3711 169.98 22.3711C169.172 22.3711 168.434 22.541 167.766 22.8809C167.109 23.2207 166.541 23.6895 166.061 24.2871C165.592 24.8848 165.223 25.5703 164.953 26.3438C164.695 27.1055 164.566 27.9141 164.566 28.7695ZM189.809 39.3516C188.484 39.3516 187.283 39.1289 186.205 38.6836C185.139 38.2266 184.219 37.5879 183.445 36.7676C182.684 35.9473 182.098 34.9746 181.688 33.8496C181.277 32.7246 181.072 31.4941 181.072 30.1582V29.4199C181.072 27.873 181.301 26.4961 181.758 25.2891C182.215 24.0703 182.836 23.0391 183.621 22.1953C184.406 21.3516 185.297 20.7129 186.293 20.2793C187.289 19.8457 188.32 19.6289 189.387 19.6289C190.746 19.6289 191.918 19.8633 192.902 20.332C193.898 20.8008 194.713 21.457 195.346 22.3008C195.979 23.1328 196.447 24.1172 196.752 25.2539C197.057 26.3789 197.209 27.6094 197.209 28.9453V30.4043H183.006V27.75H193.957V27.5039C193.91 26.6602 193.734 25.8398 193.43 25.043C193.137 24.2461 192.668 23.5898 192.023 23.0742C191.379 22.5586 190.5 22.3008 189.387 22.3008C188.648 22.3008 187.969 22.459 187.348 22.7754C186.727 23.0801 186.193 23.5371 185.748 24.1465C185.303 24.7559 184.957 25.5 184.711 26.3789C184.465 27.2578 184.342 28.2715 184.342 29.4199V30.1582C184.342 31.0605 184.465 31.9102 184.711 32.707C184.969 33.4922 185.338 34.1836 185.818 34.7812C186.311 35.3789 186.902 35.8477 187.594 36.1875C188.297 36.5273 189.094 36.6973 189.984 36.6973C191.133 36.6973 192.105 36.4629 192.902 35.9941C193.699 35.5254 194.396 34.8984 194.994 34.1133L196.963 35.6777C196.553 36.2988 196.031 36.8906 195.398 37.4531C194.766 38.0156 193.986 38.4727 193.061 38.8242C192.146 39.1758 191.062 39.3516 189.809 39.3516ZM204.258 22.9688V39H201.006V19.9805H204.17L204.258 22.9688ZM210.199 19.875L210.182 22.8984C209.912 22.8398 209.654 22.8047 209.408 22.793C209.174 22.7695 208.904 22.7578 208.6 22.7578C207.85 22.7578 207.188 22.875 206.613 23.1094C206.039 23.3438 205.553 23.6719 205.154 24.0938C204.756 24.5156 204.439 25.0195 204.205 25.6055C203.982 26.1797 203.836 26.8125 203.766 27.5039L202.852 28.0312C202.852 26.8828 202.963 25.8047 203.186 24.7969C203.42 23.7891 203.777 22.8984 204.258 22.125C204.738 21.3398 205.348 20.7305 206.086 20.2969C206.836 19.8516 207.727 19.6289 208.758 19.6289C208.992 19.6289 209.262 19.6582 209.566 19.7168C209.871 19.7637 210.082 19.8164 210.199 19.875ZM213.697 13.4062H222.17C224.092 13.4062 225.715 13.6992 227.039 14.2852C228.375 14.8711 229.389 15.7383 230.08 16.8867C230.783 18.0234 231.135 19.4238 231.135 21.0879C231.135 22.2598 230.895 23.332 230.414 24.3047C229.945 25.2656 229.266 26.0859 228.375 26.7656C227.496 27.4336 226.441 27.9316 225.211 28.2598L224.262 28.6289H216.299L216.264 25.8691H222.275C223.494 25.8691 224.508 25.6582 225.316 25.2363C226.125 24.8027 226.734 24.2227 227.145 23.4961C227.555 22.7695 227.76 21.9668 227.76 21.0879C227.76 20.1035 227.566 19.2422 227.18 18.5039C226.793 17.7656 226.184 17.1973 225.352 16.7988C224.531 16.3887 223.471 16.1836 222.17 16.1836H217.09V39H213.697V13.4062ZM228.656 39L222.434 27.3984L225.967 27.3809L232.277 38.7891V39H228.656ZM243.281 39.3516C241.957 39.3516 240.756 39.1289 239.678 38.6836C238.611 38.2266 237.691 37.5879 236.918 36.7676C236.156 35.9473 235.57 34.9746 235.16 33.8496C234.75 32.7246 234.545 31.4941 234.545 30.1582V29.4199C234.545 27.873 234.773 26.4961 235.23 25.2891C235.688 24.0703 236.309 23.0391 237.094 22.1953C237.879 21.3516 238.77 20.7129 239.766 20.2793C240.762 19.8457 241.793 19.6289 242.859 19.6289C244.219 19.6289 245.391 19.8633 246.375 20.332C247.371 20.8008 248.186 21.457 248.818 22.3008C249.451 23.1328 249.92 24.1172 250.225 25.2539C250.529 26.3789 250.682 27.6094 250.682 28.9453V30.4043H236.479V27.75H247.43V27.5039C247.383 26.6602 247.207 25.8398 246.902 25.043C246.609 24.2461 246.141 23.5898 245.496 23.0742C244.852 22.5586 243.973 22.3008 242.859 22.3008C242.121 22.3008 241.441 22.459 240.82 22.7754C240.199 23.0801 239.666 23.5371 239.221 24.1465C238.775 24.7559 238.43 25.5 238.184 26.3789C237.938 27.2578 237.814 28.2715 237.814 29.4199V30.1582C237.814 31.0605 237.938 31.9102 238.184 32.707C238.441 33.4922 238.811 34.1836 239.291 34.7812C239.783 35.3789 240.375 35.8477 241.066 36.1875C241.77 36.5273 242.566 36.6973 243.457 36.6973C244.605 36.6973 245.578 36.4629 246.375 35.9941C247.172 35.5254 247.869 34.8984 248.467 34.1133L250.436 35.6777C250.025 36.2988 249.504 36.8906 248.871 37.4531C248.238 38.0156 247.459 38.4727 246.533 38.8242C245.619 39.1758 244.535 39.3516 243.281 39.3516ZM257.73 23.6367V46.3125H254.461V19.9805H257.449L257.73 23.6367ZM270.545 29.332V29.7012C270.545 31.084 270.381 32.3672 270.053 33.5508C269.725 34.7227 269.244 35.7422 268.611 36.6094C267.99 37.4766 267.223 38.1504 266.309 38.6309C265.395 39.1113 264.346 39.3516 263.162 39.3516C261.955 39.3516 260.889 39.1523 259.963 38.7539C259.037 38.3555 258.252 37.7754 257.607 37.0137C256.963 36.252 256.447 35.3379 256.061 34.2715C255.686 33.2051 255.428 32.0039 255.287 30.668V28.6992C255.428 27.293 255.691 26.0332 256.078 24.9199C256.465 23.8066 256.975 22.8574 257.607 22.0723C258.252 21.2754 259.031 20.6719 259.945 20.2617C260.859 19.8398 261.914 19.6289 263.109 19.6289C264.305 19.6289 265.365 19.8633 266.291 20.332C267.217 20.7891 267.996 21.4453 268.629 22.3008C269.262 23.1562 269.736 24.1816 270.053 25.377C270.381 26.5605 270.545 27.8789 270.545 29.332ZM267.275 29.7012V29.332C267.275 28.3828 267.176 27.4922 266.977 26.6602C266.777 25.8164 266.467 25.0781 266.045 24.4453C265.635 23.8008 265.107 23.2969 264.463 22.9336C263.818 22.5586 263.051 22.3711 262.16 22.3711C261.34 22.3711 260.625 22.5117 260.016 22.793C259.418 23.0742 258.908 23.4551 258.486 23.9355C258.064 24.4043 257.719 24.9434 257.449 25.5527C257.191 26.1504 256.998 26.7715 256.869 27.416V31.9688C257.104 32.7891 257.432 33.5625 257.854 34.2891C258.275 35.0039 258.838 35.584 259.541 36.0293C260.244 36.4629 261.129 36.6797 262.195 36.6797C263.074 36.6797 263.83 36.498 264.463 36.1348C265.107 35.7598 265.635 35.25 266.045 34.6055C266.467 33.9609 266.777 33.2227 266.977 32.3906C267.176 31.5469 267.275 30.6504 267.275 29.7012ZM273.832 29.7012V29.2969C273.832 27.9258 274.031 26.6543 274.43 25.4824C274.828 24.2988 275.402 23.2734 276.152 22.4062C276.902 21.5273 277.811 20.8477 278.877 20.3672C279.943 19.875 281.139 19.6289 282.463 19.6289C283.799 19.6289 285 19.875 286.066 20.3672C287.145 20.8477 288.059 21.5273 288.809 22.4062C289.57 23.2734 290.15 24.2988 290.549 25.4824C290.947 26.6543 291.146 27.9258 291.146 29.2969V29.7012C291.146 31.0723 290.947 32.3438 290.549 33.5156C290.15 34.6875 289.57 35.7129 288.809 36.5918C288.059 37.459 287.15 38.1387 286.084 38.6309C285.029 39.1113 283.834 39.3516 282.498 39.3516C281.162 39.3516 279.961 39.1113 278.895 38.6309C277.828 38.1387 276.914 37.459 276.152 36.5918C275.402 35.7129 274.828 34.6875 274.43 33.5156C274.031 32.3438 273.832 31.0723 273.832 29.7012ZM277.084 29.2969V29.7012C277.084 30.6504 277.195 31.5469 277.418 32.3906C277.641 33.2227 277.975 33.9609 278.42 34.6055C278.877 35.25 279.445 35.7598 280.125 36.1348C280.805 36.498 281.596 36.6797 282.498 36.6797C283.389 36.6797 284.168 36.498 284.836 36.1348C285.516 35.7598 286.078 35.25 286.523 34.6055C286.969 33.9609 287.303 33.2227 287.525 32.3906C287.76 31.5469 287.877 30.6504 287.877 29.7012V29.2969C287.877 28.3594 287.76 27.4746 287.525 26.6426C287.303 25.7988 286.963 25.0547 286.506 24.4102C286.061 23.7539 285.498 23.2383 284.818 22.8633C284.15 22.4883 283.365 22.3008 282.463 22.3008C281.572 22.3008 280.787 22.4883 280.107 22.8633C279.439 23.2383 278.877 23.7539 278.42 24.4102C277.975 25.0547 277.641 25.7988 277.418 26.6426C277.195 27.4746 277.084 28.3594 277.084 29.2969ZM298.477 22.9688V39H295.225V19.9805H298.389L298.477 22.9688ZM304.418 19.875L304.4 22.8984C304.131 22.8398 303.873 22.8047 303.627 22.793C303.393 22.7695 303.123 22.7578 302.818 22.7578C302.068 22.7578 301.406 22.875 300.832 23.1094C300.258 23.3438 299.771 23.6719 299.373 24.0938C298.975 24.5156 298.658 25.0195 298.424 25.6055C298.201 26.1797 298.055 26.8125 297.984 27.5039L297.07 28.0312C297.07 26.8828 297.182 25.8047 297.404 24.7969C297.639 23.7891 297.996 22.8984 298.477 22.125C298.957 21.3398 299.566 20.7305 300.305 20.2969C301.055 19.8516 301.945 19.6289 302.977 19.6289C303.211 19.6289 303.48 19.6582 303.785 19.7168C304.09 19.7637 304.301 19.8164 304.418 19.875ZM316.266 19.9805V22.4766H305.982V19.9805H316.266ZM309.463 15.3574H312.715V34.2891C312.715 34.9336 312.814 35.4199 313.014 35.748C313.213 36.0762 313.471 36.293 313.787 36.3984C314.104 36.5039 314.443 36.5566 314.807 36.5566C315.076 36.5566 315.357 36.5332 315.65 36.4863C315.955 36.4277 316.184 36.3809 316.336 36.3457L316.354 39C316.096 39.082 315.756 39.1582 315.334 39.2285C314.924 39.3105 314.426 39.3516 313.84 39.3516C313.043 39.3516 312.311 39.1934 311.643 38.877C310.975 38.5605 310.441 38.0332 310.043 37.2949C309.656 36.5449 309.463 35.5371 309.463 34.2715V15.3574Z" fill="white"/>
</svg>
